HIERARCHY
ROOT newVegas:Hips
{
	OFFSET 0.000000 96.479958 0.000000
	CHANNELS 6 Xposition Yposition Zposition Xrotation Yrotation Zrotation
	JOINT newVegas:Pelvis
	{
		OFFSET 0.000000 0.000000 0.000000
		CHANNELS 3 Xrotation Yrotation Zrotation
		JOINT newVegas:LeftUpLeg
		{
			OFFSET 18.735201 -5.666702 -4.541200
			CHANNELS 3 Xrotation Yrotation Zrotation
			JOINT newVegas:LeftLeg
			{
				OFFSET -0.021200 -31.938179 0.493100
				CHANNELS 3 Xrotation Yrotation Zrotation
				JOINT newVegas:LeftFoot
				{
					OFFSET 0.021200 -31.938179 -4.336299
					CHANNELS 3 Xrotation Yrotation Zrotation
					JOINT newVegas:LeftToeBase
					{
						OFFSET 0.943001 -26.722000 15.023500
						CHANNELS 3 Xrotation Yrotation Zrotation
						End Site
						{
							OFFSET 0.000000 30.670183 0.000000
						}
					}
				}
				JOINT newVegas:Left_PantLeg
				{
					OFFSET 0.663870 -9.044666 -1.108900
					CHANNELS 3 Xrotation Yrotation Zrotation
					End Site
					{
						OFFSET 1.415995 20.635357 0.000000
					}
				}
			}
		}
		JOINT newVegas:RightUpLeg
		{
			OFFSET -18.735201 -5.666702 -4.541200
			CHANNELS 3 Xrotation Yrotation Zrotation
			JOINT newVegas:RightLeg
			{
				OFFSET 0.018946 -31.938133 0.493100
				CHANNELS 3 Xrotation Yrotation Zrotation
				JOINT newVegas:RightFoot
				{
					OFFSET -0.018946 -31.938126 -4.336299
					CHANNELS 3 Xrotation Yrotation Zrotation
					JOINT newVegas:RightToeBase
					{
						OFFSET -0.943001 -26.722004 15.023500
						CHANNELS 3 Xrotation Yrotation Zrotation
						End Site
						{
							OFFSET 0.000000 30.670187 0.000000
						}
					}
				}
				JOINT newVegas:Right_PantLeg
				{
					OFFSET -0.661674 -9.044716 -1.108900
					CHANNELS 3 Xrotation Yrotation Zrotation
					End Site
					{
						OFFSET -1.415958 20.635269 0.000000
					}
				}
			}
		}
	}
	JOINT newVegas:Spine
	{
		OFFSET 0.000000 10.199997 -0.299500
		CHANNELS 3 Xrotation Yrotation Zrotation
		JOINT newVegas:Spine1
		{
			OFFSET 0.000000 11.900002 -1.516600
			CHANNELS 3 Xrotation Yrotation Zrotation
			JOINT newVegas:Spine2
			{
				OFFSET 0.000000 13.600006 -2.842500
				CHANNELS 3 Xrotation Yrotation Zrotation
				JOINT newVegas:Neck
				{
					OFFSET 0.000000 9.624100 -2.890100
					CHANNELS 3 Xrotation Yrotation Zrotation
					JOINT newVegas:Head
					{
						OFFSET 0.000000 14.068802 -1.351900
						CHANNELS 3 Xrotation Yrotation Zrotation
						JOINT newVegas:Hair_Back
						{
							OFFSET 0.000000 3.231903 -17.524799
							CHANNELS 3 Xrotation Yrotation Zrotation
							End Site
							{
								OFFSET 0.000000 19.849884 0.000000
							}
						}
						JOINT newVegas:Hair_Front
						{
							OFFSET 0.000000 31.260406 4.573800
							CHANNELS 3 Xrotation Yrotation Zrotation
							JOINT newVegas:Hair_Front1
							{
								OFFSET 0.000000 2.284103 11.993300
								CHANNELS 3 Xrotation Yrotation Zrotation
								JOINT newVegas:Hair_Front2
								{
									OFFSET 0.000000 2.284103 11.993300
									CHANNELS 3 Xrotation Yrotation Zrotation
									End Site
									{
										OFFSET 0.000000 12.208862 0.000000
									}
								}
							}
						}
						JOINT newVegas:Jowel
						{
							OFFSET 0.000000 -7.458206 6.864100
							CHANNELS 3 Xrotation Yrotation Zrotation
							End Site
							{
								OFFSET 0.000000 19.849884 0.000000
							}
						}
					}
				}
				JOINT newVegas:LeftShoulder
				{
					OFFSET 15.263000 10.923401 -0.547700
					CHANNELS 3 Xrotation Yrotation Zrotation
					JOINT newVegas:LeftArm
					{
						OFFSET 25.438599 -2.830597 -13.032500
						CHANNELS 3 Xrotation Yrotation Zrotation
						JOINT newVegas:LeftForeArm
						{
							OFFSET 29.960503 0.000000 0.000000
							CHANNELS 3 Xrotation Yrotation Zrotation
							JOINT newVegas:LeftHand
							{
								OFFSET 27.849251 0.000000 0.000000
								CHANNELS 3 Xrotation Yrotation Zrotation
								JOINT newVegas:LeftHandThumb1
								{
									OFFSET 4.487587 -3.305161 6.305391
									CHANNELS 3 Xrotation Yrotation Zrotation
									JOINT newVegas:LeftHandThumb2
									{
										OFFSET 5.480453 -3.164139 3.164143
										CHANNELS 3 Xrotation Yrotation Zrotation
										JOINT newVegas:LeftHandThumb3
										{
											OFFSET 5.159721 -2.978973 2.978967
											CHANNELS 3 Xrotation Yrotation Zrotation
											End Site
											{
												OFFSET 2.494507 5.926697 1.738678
											}
										}
									}
								}
								JOINT newVegas:LeftHandIndex1
								{
									OFFSET 18.578728 -0.527832 5.208049
									CHANNELS 3 Xrotation Yrotation Zrotation
									JOINT newVegas:LeftHandIndex2
									{
										OFFSET 3.192009 0.000000 0.000000
										CHANNELS 3 Xrotation Yrotation Zrotation
										JOINT newVegas:LeftHandIndex3
										{
											OFFSET 3.835129 0.000000 0.000000
											CHANNELS 3 Xrotation Yrotation Zrotation
											End Site
											{
												OFFSET -0.034599 3.816971 0.371180
											}
										}
									}
								}
								JOINT newVegas:LeftHandMiddle1
								{
									OFFSET 18.476105 0.000000 0.000000
									CHANNELS 3 Xrotation Yrotation Zrotation
									JOINT newVegas:LeftHandMiddle2
									{
										OFFSET 3.324875 0.000000 0.000000
										CHANNELS 3 Xrotation Yrotation Zrotation
										JOINT newVegas:LeftHandMiddle3
										{
											OFFSET 4.596550 0.000000 0.000000
											CHANNELS 3 Xrotation Yrotation Zrotation
											End Site
											{
												OFFSET 0.057701 4.578827 0.399218
											}
										}
									}
								}
								JOINT newVegas:LeftHandRing1
								{
									OFFSET 17.732719 0.121887 -4.201567
									CHANNELS 3 Xrotation Yrotation Zrotation
									JOINT newVegas:LeftHandRing2
									{
										OFFSET 2.733170 0.000000 0.000000
										CHANNELS 3 Xrotation Yrotation Zrotation
										JOINT newVegas:LeftHandRing3
										{
											OFFSET 3.178268 0.000000 0.000000
											CHANNELS 3 Xrotation Yrotation Zrotation
											End Site
											{
												OFFSET 0.119102 3.170624 0.185394
											}
										}
									}
								}
								JOINT newVegas:LeftHandPinky1
								{
									OFFSET 15.989624 -0.606689 -7.535461
									CHANNELS 3 Xrotation Yrotation Zrotation
									JOINT newVegas:LeftHandPinky2
									{
										OFFSET 2.538986 0.000000 0.000000
										CHANNELS 3 Xrotation Yrotation Zrotation
										JOINT newVegas:LeftHandPinky3
										{
											OFFSET 2.593102 0.000000 0.000000
											CHANNELS 3 Xrotation Yrotation Zrotation
											End Site
											{
												OFFSET -0.150902 2.584198 0.152708
											}
										}
									}
								}
							}
							JOINT newVegas:Left_Sleeve
							{
								OFFSET 0.267448 -0.649796 0.577675
								CHANNELS 3 Xrotation Yrotation Zrotation
								End Site
								{
									OFFSET 0.000000 15.991241 0.000000
								}
							}
							JOINT newVegas:Left_CapeC
							{
								OFFSET 15.715958 -8.608795 -6.935905
								CHANNELS 3 Xrotation Yrotation Zrotation
								JOINT newVegas:Left_CapeC1
								{
									OFFSET 0.000000 -8.688499 0.000000
									CHANNELS 3 Xrotation Yrotation Zrotation
									End Site
									{
										OFFSET 0.000000 8.688499 0.000000
									}
								}
							}
						}
						JOINT newVegas:Left_CapeB
						{
							OFFSET 26.118385 -8.608795 -7.079235
							CHANNELS 3 Xrotation Yrotation Zrotation
							JOINT newVegas:Left_CapeB1
							{
								OFFSET 0.000000 -8.688499 0.000000
								CHANNELS 3 Xrotation Yrotation Zrotation
								End Site
								{
									OFFSET 0.000000 8.688499 0.000000
								}
							}
						}
						JOINT newVegas:Left_CapeA
						{
							OFFSET 5.115639 -8.608795 -10.395809
							CHANNELS 3 Xrotation Yrotation Zrotation
							JOINT newVegas:Left_CapeA1
							{
								OFFSET 0.000000 -8.688499 0.000000
								CHANNELS 3 Xrotation Yrotation Zrotation
								End Site
								{
									OFFSET 0.000000 8.688499 0.000000
								}
							}
						}
					}
				}
				JOINT newVegas:RightShoulder
				{
					OFFSET -15.263000 10.923401 -0.547700
					CHANNELS 3 Xrotation Yrotation Zrotation
					JOINT newVegas:RightArm
					{
						OFFSET -25.438599 -2.830597 -13.032500
						CHANNELS 3 Xrotation Yrotation Zrotation
						JOINT newVegas:RightForeArm
						{
							OFFSET -29.960503 0.000000 0.000000
							CHANNELS 3 Xrotation Yrotation Zrotation
							JOINT newVegas:RightHand
							{
								OFFSET -27.849251 0.000000 0.000000
								CHANNELS 3 Xrotation Yrotation Zrotation
								JOINT newVegas:RightHandThumb1
								{
									OFFSET -4.487587 -3.305161 6.305391
									CHANNELS 3 Xrotation Yrotation Zrotation
									JOINT newVegas:RightHandThumb2
									{
										OFFSET -5.480453 -3.164139 3.164143
										CHANNELS 3 Xrotation Yrotation Zrotation
										JOINT newVegas:RightHandThumb3
										{
											OFFSET -5.159721 -2.978973 2.978967
											CHANNELS 3 Xrotation Yrotation Zrotation
											End Site
											{
												OFFSET -2.494507 5.926697 1.738678
											}
										}
									}
								}
								JOINT newVegas:RightHandIndex1
								{
									OFFSET -18.578728 -0.527832 5.208049
									CHANNELS 3 Xrotation Yrotation Zrotation
									JOINT newVegas:RightHandIndex2
									{
										OFFSET -3.192009 0.000000 0.000000
										CHANNELS 3 Xrotation Yrotation Zrotation
										JOINT newVegas:RightHandIndex3
										{
											OFFSET -3.835129 0.000000 0.000000
											CHANNELS 3 Xrotation Yrotation Zrotation
											End Site
											{
												OFFSET 0.034599 3.816971 0.371180
											}
										}
									}
								}
								JOINT newVegas:RightHandMiddle1
								{
									OFFSET -18.476105 0.000000 0.000000
									CHANNELS 3 Xrotation Yrotation Zrotation
									JOINT newVegas:RightHandMiddle2
									{
										OFFSET -3.324875 0.000000 0.000000
										CHANNELS 3 Xrotation Yrotation Zrotation
										JOINT newVegas:RightHandMiddle3
										{
											OFFSET -4.596550 0.000000 0.000000
											CHANNELS 3 Xrotation Yrotation Zrotation
											End Site
											{
												OFFSET -0.057701 4.578827 0.399218
											}
										}
									}
								}
								JOINT newVegas:RightHandRing1
								{
									OFFSET -17.732719 0.121887 -4.201567
									CHANNELS 3 Xrotation Yrotation Zrotation
									JOINT newVegas:RightHandRing2
									{
										OFFSET -2.733170 0.000000 0.000000
										CHANNELS 3 Xrotation Yrotation Zrotation
										JOINT newVegas:RightHandRing3
										{
											OFFSET -3.178268 0.000000 0.000000
											CHANNELS 3 Xrotation Yrotation Zrotation
											End Site
											{
												OFFSET -0.119102 3.170624 0.185394
											}
										}
									}
								}
								JOINT newVegas:RightHandPinky1
								{
									OFFSET -15.989624 -0.606689 -7.535461
									CHANNELS 3 Xrotation Yrotation Zrotation
									JOINT newVegas:RightHandPinky2
									{
										OFFSET -2.538986 0.000000 0.000000
										CHANNELS 3 Xrotation Yrotation Zrotation
										JOINT newVegas:RightHandPinky3
										{
											OFFSET -2.593102 0.000000 0.000000
											CHANNELS 3 Xrotation Yrotation Zrotation
											End Site
											{
												OFFSET 0.150902 2.584198 0.152708
											}
										}
									}
								}
							}
							JOINT newVegas:Right_CapeC
							{
								OFFSET -15.715958 -8.608795 -6.935905
								CHANNELS 3 Xrotation Yrotation Zrotation
								JOINT newVegas:Right_CapeC1
								{
									OFFSET 0.000000 -8.688499 0.000000
									CHANNELS 3 Xrotation Yrotation Zrotation
									End Site
									{
										OFFSET 0.000000 8.688499 0.000000
									}
								}
							}
							JOINT newVegas:Right_Sleeve
							{
								OFFSET -0.267448 -0.649994 0.577675
								CHANNELS 3 Xrotation Yrotation Zrotation
								End Site
								{
									OFFSET 0.000000 15.991302 0.000000
								}
							}
						}
						JOINT newVegas:Right_CapeA
						{
							OFFSET -5.115540 -8.608795 -10.395824
							CHANNELS 3 Xrotation Yrotation Zrotation
							JOINT newVegas:Right_CapeA1
							{
								OFFSET 0.000000 -8.688499 0.000000
								CHANNELS 3 Xrotation Yrotation Zrotation
								End Site
								{
									OFFSET 0.000000 8.688499 0.000000
								}
							}
						}
						JOINT newVegas:Right_CapeB
						{
							OFFSET -26.118187 -8.608795 -7.079266
							CHANNELS 3 Xrotation Yrotation Zrotation
							JOINT newVegas:Right_CapeB1
							{
								OFFSET 0.000000 -8.688499 0.000000
								CHANNELS 3 Xrotation Yrotation Zrotation
								End Site
								{
									OFFSET 0.000000 8.688499 0.000000
								}
							}
						}
					}
				}
				JOINT newVegas:Left_Collar
				{
					OFFSET 18.625099 8.655502 8.828100
					CHANNELS 3 Xrotation Yrotation Zrotation
					JOINT newVegas:Left_Collar1
					{
						OFFSET 14.783401 10.540405 -1.259500
						CHANNELS 3 Xrotation Yrotation Zrotation
						End Site
						{
							OFFSET 0.000000 18.199875 0.000000
						}
					}
				}
				JOINT newVegas:Collar_Back
				{
					OFFSET 0.000000 15.630707 -20.132601
					CHANNELS 3 Xrotation Yrotation Zrotation
					End Site
					{
						OFFSET 0.000000 22.523010 0.000000
					}
				}
				JOINT newVegas:Left_Peck
				{
					OFFSET 17.239599 -5.132599 25.482599
					CHANNELS 3 Xrotation Yrotation Zrotation
					End Site
					{
						OFFSET 0.000000 22.523010 0.000000
					}
				}
				JOINT newVegas:Right_Peck
				{
					OFFSET -17.239599 -5.132202 25.482599
					CHANNELS 3 Xrotation Yrotation Zrotation
					End Site
					{
						OFFSET 0.000000 22.523010 0.000000
					}
				}
				JOINT newVegas:Right_Collar
				{
					OFFSET -18.625099 8.655792 8.828100
					CHANNELS 3 Xrotation Yrotation Zrotation
					JOINT newVegas:Right_Collar1
					{
						OFFSET -14.783401 10.539993 -1.259500
						CHANNELS 3 Xrotation Yrotation Zrotation
						End Site
						{
							OFFSET 0.000000 18.199631 0.000000
						}
					}
				}
			}
		}
		JOINT newVegas:Belly
		{
			OFFSET 0.000000 -6.540398 9.014299
			CHANNELS 3 Xrotation Yrotation Zrotation
			End Site
			{
				OFFSET 0.000000 11.566666 0.000000
			}
		}
	}
	JOINT newVegas:ElvisFacialAnim_Joint
	{
		OFFSET 1.000000 -95.330101 -8.825800
		CHANNELS 3 Xrotation Yrotation Zrotation
		End Site
		{
			OFFSET 0.000000 35.315800 0.000000
		}
	}
}
MOTION
Frames: 4
Frame Time: 0.033333
-0.125750 55.467125 11.404724 -20.409326 -4.685993 8.053255 0.000002 0.000000 -0.000001 -92.991646 0.666792 17.840871 68.784492 -3.385205 -2.685862 45.442362 -6.231188 -7.136309 -0.000000 -0.000000 0.000000 -0.000000 -0.000000 0.000000 -104.147933 8.809257 -2.922051 70.687656 1.749130 2.541984 53.534251 -3.404212 -5.460100 -0.000000 0.000001 0.000000 0.000001 0.000001 -0.000000 6.783548 0.273424 -2.067097 13.578524 0.622093 -4.152762 13.578527 0.622092 -4.152761 0.916505 0.442390 -1.103119 0.916520 0.442390 -1.103120 0.000000 0.000000 0.000000 0.916575 0.442390 -1.103120 0.916431 0.442386 -1.103118 0.000002 0.000000 0.000000 0.000000 0.000000 0.000000 -0.074248 -23.683510 -5.342712 -34.789244 -43.366029 -58.835823 -0.393760 -69.769467 -0.315393 43.375564 -0.737287 14.181301 -4.459843 -1.187736 -9.916312 3.615876 21.384740 -7.966246 -0.000000 -0.000002 -0.000003 0.755957 4.351611 -96.486954 1.021283 0.914680 -89.085078 0.000001 -0.000000 -0.000002 -0.813098 -1.248184 -97.681759 -2.880694 -4.315402 -67.244476 -0.000001 -0.000001 0.000003 -2.577762 -1.169158 -97.525054 -3.808763 -4.752308 -77.527736 -0.000001 -0.000004 -0.000002 1.577872 -2.157719 -98.392311 -6.180797 -6.635446 -85.701867 -0.000001 0.000002 -0.000000 0.000003 -0.000002 -0.000001 0.000003 -0.000002 -0.000001 0.000002 -0.000002 -0.000001 -0.000001 -0.000002 0.000002 -0.000001 -0.000003 -0.000001 -0.000001 -0.000002 0.000002 -0.000002 -0.000003 0.000002 -0.155184 10.052392 14.454663 -18.341705 5.770040 44.408247 18.298591 115.886085 -29.511755 -45.821034 19.767030 -14.404710 -14.110028 1.619773 32.154113 10.936754 -23.798411 1.710640 -0.000002 -0.000003 0.000001 -10.216640 -3.975953 85.029742 2.280373 -2.241119 72.167540 -0.000002 0.000002 -0.000001 -6.964179 -0.504597 90.024455 -3.398985 3.541994 87.472102 -0.000003 -0.000000 -0.000000 -6.985155 2.256638 89.642825 -5.731719 6.141662 84.621604 -0.000002 0.000001 -0.000001 -9.953087 5.768238 89.218089 -6.605884 9.286019 70.707259 0.000002 0.000003 -0.000000 -0.000001 -0.000004 0.000003 -0.000001 -0.000004 0.000002 -0.000001 -0.000004 0.000002 0.000001 -0.000001 -0.000001 0.000001 -0.000001 0.000000 0.000001 -0.000001 -0.000001 0.000001 -0.000001 0.000002 -0.000000 0.000000 -0.000000 -0.000000 0.000000 -0.000000 -0.000000 0.000000 -0.000000 -0.000000 0.000000 -0.000000 -0.000000 0.000000 -0.000000 -0.000000 0.000000 -0.000000 -0.000000 0.000000 -0.000000 -0.000000 0.000000 0.000000 0.000002 0.000000 -0.000001 
-0.136187 55.477715 11.587929 -20.409592 -4.660980 7.975536 0.000000 -0.000000 0.000001 -93.191374 0.362731 17.886418 69.388568 -3.398837 -2.720829 45.001214 -6.231967 -7.288449 -0.000000 0.000000 0.000001 -0.000003 0.000000 -0.000000 -104.276956 8.797283 -2.922522 71.009297 1.762308 2.559933 53.483585 -3.426739 -5.404756 0.000000 -0.000001 -0.000000 -0.000004 -0.000000 -0.000000 6.754399 0.242079 -2.020335 13.519703 0.617087 -4.035902 13.519707 0.617086 -4.035903 0.813602 0.454483 -1.134604 0.813618 0.454483 -1.134605 0.000000 0.000000 0.000000 0.813674 0.454483 -1.134603 0.813525 0.454479 -1.134601 -0.000001 0.000000 0.000000 0.000000 0.000000 0.000000 0.023031 -23.636286 -4.812555 -33.851312 -44.040851 -57.447205 0.565127 -71.430603 0.612282 42.315918 0.617985 13.602899 -4.459842 -1.187735 -9.916311 3.615875 21.384738 -7.966246 0.000001 -0.000004 -0.000003 0.656460 4.344764 -96.680774 1.019612 0.914816 -88.983028 0.000000 -0.000004 0.000001 -1.058941 -1.252744 -98.178191 -2.888645 -4.318715 -67.350146 -0.000001 0.000001 0.000002 -2.878097 -1.176880 -98.598651 -3.788086 -4.747726 -77.277976 -0.000004 -0.000002 -0.000001 1.506483 -2.146670 -98.386607 -6.287754 -6.641773 -86.625165 -0.000000 -0.000005 0.000001 -0.000000 0.000002 0.000004 -0.000000 0.000002 0.000004 -0.000001 0.000002 0.000004 0.000001 -0.000002 -0.000000 0.000001 -0.000003 -0.000000 0.000001 -0.000002 -0.000000 -0.000001 -0.000003 -0.000000 -0.120207 9.264516 14.735957 -18.523121 6.062404 44.521499 18.356902 116.619388 -29.166506 -45.857204 19.775549 -14.926146 -14.110032 1.619782 32.154116 10.936753 -23.798409 1.710638 0.000002 -0.000001 0.000001 -10.216644 -3.975949 85.029742 2.280368 -2.241117 72.167547 -0.000001 -0.000001 -0.000002 -6.970080 -0.499597 89.892229 -3.398405 3.541966 87.462608 -0.000001 -0.000001 0.000001 -7.017365 2.256815 89.633249 -5.727920 6.141308 84.585869 -0.000003 -0.000001 0.000000 -10.099721 5.744160 89.477814 -6.580095 9.277216 70.547542 -0.000000 0.000001 0.000002 0.000001 0.000000 0.000001 0.000001 0.000000 0.000000 0.000001 0.000000 -0.000000 -0.000000 0.000000 -0.000003 0.000000 0.000000 -0.000001 -0.000000 0.000000 -0.000003 0.000000 -0.000000 0.000000 -0.000000 0.000000 0.000000 -0.000000 0.000000 0.000000 -0.000000 0.000000 0.000000 -0.000000 0.000000 0.000000 -0.000000 0.000000 0.000000 -0.000000 0.000000 0.000000 -0.000000 0.000000 0.000000 0.000001 0.000000 0.000000 0.000000 -0.000000 0.000001 
-0.153623 55.491600 11.583576 -20.410294 -4.628078 7.901753 -0.000001 0.000000 0.000000 -93.223462 0.160496 17.900654 69.570203 -3.358504 -2.724376 44.700631 -6.270265 -7.437583 -0.000000 -0.000000 0.000001 -0.000001 0.000000 0.000001 -104.172946 8.733376 -2.931423 70.851492 1.762708 2.557295 53.652755 -3.462180 -5.365251 0.000000 0.000001 0.000000 0.000000 0.000000 -0.000000 6.729880 0.205650 -1.978373 13.470122 0.611880 -3.924392 13.470125 0.611880 -3.924394 0.669138 0.503308 -1.159164 0.669131 0.503308 -1.159165 0.000000 0.000000 -0.000000 0.669136 0.503308 -1.159163 0.669210 0.503309 -1.159166 0.000000 0.000000 0.000000 0.000000 0.000000 0.000000 0.144579 -23.625713 -4.139759 -32.598423 -44.987820 -55.059555 2.141608 -73.844235 2.130622 40.897424 2.788313 12.703090 -4.459842 -1.187741 -9.916313 3.615875 21.384737 -7.966252 0.000002 -0.000001 -0.000004 0.559355 4.341834 -96.836120 1.017899 0.914950 -88.880145 0.000001 0.000002 -0.000003 -1.330463 -1.262239 -98.847529 -2.888707 -4.318746 -67.351027 -0.000001 0.000003 -0.000001 -3.182255 -1.187095 -99.961868 -3.766362 -4.742790 -77.015458 0.000000 0.000003 -0.000000 1.520828 -2.148922 -98.387762 -6.367113 -6.645366 -87.309728 -0.000001 -0.000002 -0.000001 -0.000000 -0.000001 -0.000003 -0.000000 -0.000001 -0.000003 -0.000001 -0.000001 -0.000003 -0.000001 0.000002 -0.000002 -0.000001 0.000001 -0.000004 -0.000001 0.000002 -0.000002 -0.000001 0.000001 -0.000003 -0.135386 9.270940 15.013709 -18.643870 5.649545 44.494680 17.951219 118.121770 -28.770417 -45.874194 19.633932 -15.511319 -14.110035 1.619773 32.154120 10.936757 -23.798411 1.710638 -0.000004 0.000001 -0.000000 -10.216644 -3.975950 85.029749 2.280373 -2.241117 72.167540 0.000000 0.000001 0.000002 -6.955902 -0.500713 89.925021 -3.398444 3.541975 87.462881 0.000005 0.000004 -0.000003 -7.049726 2.249473 89.814747 -5.724014 6.140950 84.549395 -0.000002 -0.000001 0.000000 -10.336394 5.682856 90.107523 -6.550875 9.267130 70.366467 -0.000000 0.000003 0.000000 -0.000000 0.000004 -0.000001 0.000000 0.000001 -0.000001 -0.000000 0.000004 -0.000001 -0.000001 0.000001 0.000002 -0.000000 0.000000 0.000002 -0.000001 0.000001 0.000002 -0.000000 0.000000 0.000002 -0.000001 0.000000 -0.000000 -0.000001 0.000000 -0.000000 -0.000001 0.000000 -0.000000 -0.000001 0.000000 -0.000000 -0.000001 0.000000 -0.000000 -0.000001 0.000000 -0.000000 -0.000001 0.000000 -0.000000 -0.000001 0.000000 -0.000000 -0.000001 0.000000 0.000000 
-0.182350 55.513580 11.549610 -20.411267 -4.577945 7.844929 0.000001 0.000000 -0.000000 -93.239561 -0.022944 17.894851 69.790791 -3.317377 -2.728713 44.162579 -6.374301 -7.585223 -0.000000 -0.000001 0.000001 0.000004 -0.000001 -0.000000 -104.054879 8.666075 -2.946168 70.689405 1.756138 2.553121 53.756427 -3.496890 -5.355443 0.000000 -0.000001 -0.000000 -0.000004 -0.000000 -0.000001 6.708462 0.169401 -1.947075 13.426974 0.617126 -3.829233 13.426976 0.617126 -3.829233 0.505668 0.588259 -1.188065 0.505681 0.588259 -1.188067 -0.000001 -0.000000 -0.000000 0.505674 0.588257 -1.188065 0.505745 0.588264 -1.188067 -0.000001 0.000000 0.000000 -0.000001 -0.000000 -0.000000 0.290730 -23.639278 -3.327651 -31.062884 -45.903738 -51.977907 5.393945 -77.556081 5.334240 39.715340 6.089173 11.285562 -4.459840 -1.187737 -9.916313 3.615873 21.384749 -7.966247 0.000002 0.000000 -0.000006 0.360361 4.357460 -96.929496 1.015119 0.915158 -88.712143 0.000001 0.000000 -0.000000 -1.693266 -1.249108 -99.498822 -2.895807 -4.321695 -67.445379 -0.000002 -0.000002 0.000000 -3.533667 -1.168398 -101.140813 -3.749907 -4.738992 -76.816337 0.000001 0.000001 0.000003 1.510105 -2.147260 -98.386928 -6.430719 -6.647549 -87.858164 0.000000 -0.000002 -0.000001 -0.000000 -0.000003 -0.000001 -0.000000 -0.000003 -0.000001 -0.000001 -0.000002 -0.000001 0.000000 -0.000001 0.000001 -0.000000 -0.000001 -0.000001 0.000000 -0.000001 0.000001 -0.000001 -0.000002 0.000001 -0.156282 9.286232 15.388059 -19.040998 4.845767 44.523312 17.448531 120.350706 -28.201469 -46.112895 19.375476 -15.832711 -14.110028 1.619777 32.154116 10.936754 -23.798413 1.710643 0.000001 -0.000002 -0.000001 -10.216638 -3.975950 85.029742 2.280369 -2.241119 72.167540 0.000001 -0.000001 -0.000000 -6.956153 -0.493314 89.730695 -3.398447 3.541984 87.463202 0.000002 0.000006 -0.000003 -7.117155 2.245930 89.886082 -5.723310 6.140860 84.542900 -0.000003 -0.000001 -0.000001 -10.524476 5.650620 90.407574 -6.501471 9.249891 70.059750 0.000002 0.000002 -0.000001 -0.000001 0.000001 -0.000001 -0.000001 -0.000003 -0.000001 -0.000001 0.000000 -0.000001 0.000001 0.000001 -0.000000 0.000001 0.000002 -0.000000 0.000001 0.000001 -0.000000 0.000001 0.000002 -0.000001 0.000000 -0.000000 -0.000000 0.000000 -0.000000 -0.000000 0.000000 -0.000000 -0.000000 0.000000 -0.000000 -0.000000 0.000000 -0.000000 -0.000000 0.000000 -0.000000 -0.000000 0.000000 -0.000000 -0.000000 -0.000001 -0.000000 0.000000 0.000001 0.000000 -0.000000 
